<?xml version="1.0" encoding="UTF-8"?>
<svg xmlns="http://www.w3.org/2000/svg" viewBox="0 0 219.22 42.93">
  <defs>
    <style>.cls-1{fill:#fff;}</style>
  </defs>
  <g id="Layer_2" data-name="Layer 2">
    <g id="Layer_1-2" data-name="Layer 1">
      <rect class="cls-1" x="66.78" y="8.33" width="18.49" height="1.82" transform="translate(66.78 85.27) rotate(-90)"></rect>
      <path class="cls-1" d="M95.91,4.23a1.47,1.47,0,0,1-.39.45.88.88,0,0,1-.53.15,1.31,1.31,0,0,1-.62-.18l-.75-.4a6.15,6.15,0,0,0-1-.41,3.78,3.78,0,0,0-1.22-.18,2.63,2.63,0,0,0-1.77.51,1.69,1.69,0,0,0-.58,1.36,1.3,1.3,0,0,0,.35.92,2.91,2.91,0,0,0,.92.62,8.46,8.46,0,0,0,1.3.48c.49.15,1,.31,1.49.49a14,14,0,0,1,1.5.63A5,5,0,0,1,96,9.6,4.32,4.32,0,0,1,96.86,11a4.71,4.71,0,0,1,.35,1.94,6.34,6.34,0,0,1-.43,2.36,5.65,5.65,0,0,1-1.27,1.92,5.87,5.87,0,0,1-2.05,1.29,7.73,7.73,0,0,1-2.77.47A8.62,8.62,0,0,1,89,18.77a10.83,10.83,0,0,1-1.71-.49,10.13,10.13,0,0,1-1.55-.76,7,7,0,0,1-1.26-1l1.25-2a1.2,1.2,0,0,1,.39-.35,1,1,0,0,1,.53-.15,1.41,1.41,0,0,1,.76.24l.86.52a6.37,6.37,0,0,0,1.11.53,4.12,4.12,0,0,0,1.47.24,2.79,2.79,0,0,0,1.79-.51,1.92,1.92,0,0,0,.64-1.61,1.51,1.51,0,0,0-.35-1,2.71,2.71,0,0,0-.92-.67,8.77,8.77,0,0,0-1.29-.46c-.49-.13-1-.28-1.49-.44a11.89,11.89,0,0,1-1.49-.6,4.75,4.75,0,0,1-1.29-.94,4.34,4.34,0,0,1-.92-1.45,5.81,5.81,0,0,1-.35-2.14,5.15,5.15,0,0,1,.41-2A5.3,5.3,0,0,1,86.76,2a5.92,5.92,0,0,1,2-1.22A7.3,7.3,0,0,1,91.39.33,9.69,9.69,0,0,1,93,.47a8,8,0,0,1,2.84,1,5.65,5.65,0,0,1,1.1.8Z"></path>
      <path class="cls-1" d="M109.8,15.41a3.85,3.85,0,0,0,1.52-.28,3.08,3.08,0,0,0,1.13-.81,3.54,3.54,0,0,0,.71-1.28,5.67,5.67,0,0,0,.24-1.72V.53h4.23V11.32a8.52,8.52,0,0,1-.55,3.08,7,7,0,0,1-1.55,2.41,7.06,7.06,0,0,1-2.47,1.57,9.64,9.64,0,0,1-6.53,0,7.06,7.06,0,0,1-2.47-1.57,7,7,0,0,1-1.55-2.41,8.74,8.74,0,0,1-.53-3.08V.53h4.22V11.31a5.72,5.72,0,0,0,.24,1.72,3.83,3.83,0,0,0,.71,1.29,3.17,3.17,0,0,0,1.13.81A3.88,3.88,0,0,0,109.8,15.41Z"></path>
      <path class="cls-1" d="M143.9.53V18.75h-3.72V8.27c0-.24,0-.5,0-.79s0-.57.07-.86L135.43,16a1.6,1.6,0,0,1-.61.67,1.66,1.66,0,0,1-.87.22h-.57a1.66,1.66,0,0,1-.87-.22,1.53,1.53,0,0,1-.61-.67L127.06,6.6c0,.3,0,.59.07.88s0,.55,0,.79V18.75h-3.72V.53h3.22l.48,0a1.06,1.06,0,0,1,.37.07.72.72,0,0,1,.29.2,1.34,1.34,0,0,1,.26.36l4.69,9.24c.16.32.33.65.48,1s.3.69.44,1.05c.15-.37.29-.73.45-1.08s.32-.68.49-1l4.68-9.2a1.33,1.33,0,0,1,.25-.36.83.83,0,0,1,.3-.2,1,1,0,0,1,.36-.07l.49,0Z"></path>
      <path class="cls-1" d="M170.4.53V18.75h-3.72V8.27c0-.24,0-.5,0-.79s0-.57.07-.86L161.93,16a1.6,1.6,0,0,1-.61.67,1.66,1.66,0,0,1-.87.22h-.57a1.66,1.66,0,0,1-.87-.22,1.53,1.53,0,0,1-.61-.67L153.56,6.6c0,.3.05.59.07.88s0,.55,0,.79V18.75h-3.72V.53h3.22l.48,0a1.06,1.06,0,0,1,.37.07.72.72,0,0,1,.29.2,1.34,1.34,0,0,1,.26.36l4.69,9.24c.16.32.33.65.48,1s.3.69.44,1.05c.15-.37.29-.73.45-1.08s.32-.68.49-1l4.68-9.2A1.33,1.33,0,0,1,166,.82a.83.83,0,0,1,.3-.2,1,1,0,0,1,.36-.07l.49,0Z"></path>
      <path class="cls-1" d="M180.68,18.75h-4.25V.53h4.25Z"></path>
      <path class="cls-1" d="M199.79,3.88h-5.13V18.75h-4.22V3.88h-5.13V.53h14.48Z"></path>
      <path class="cls-1" d="M30.33,4.23a1.62,1.62,0,0,1-.39.45.9.9,0,0,1-.53.15,1.28,1.28,0,0,1-.62-.18L28,4.25a6.15,6.15,0,0,0-1-.41,3.86,3.86,0,0,0-1.22-.18,2.6,2.6,0,0,0-1.77.51,1.69,1.69,0,0,0-.58,1.36,1.26,1.26,0,0,0,.35.92,3,3,0,0,0,.91.62,8.87,8.87,0,0,0,1.3.48c.49.15,1,.31,1.5.49a13.85,13.85,0,0,1,1.49.63,4.82,4.82,0,0,1,1.3.93A4.18,4.18,0,0,1,31.28,11a4.87,4.87,0,0,1,.35,1.94,6.15,6.15,0,0,1-.44,2.36,5.5,5.5,0,0,1-1.27,1.92,5.74,5.74,0,0,1-2,1.29,7.77,7.77,0,0,1-2.77.47,8.54,8.54,0,0,1-1.73-.18,10.83,10.83,0,0,1-1.71-.49,9.7,9.7,0,0,1-1.55-.76,6.36,6.36,0,0,1-1.26-1l1.25-2a1.2,1.2,0,0,1,.39-.35,1,1,0,0,1,.53-.15,1.44,1.44,0,0,1,.76.24l.86.52a6.37,6.37,0,0,0,1.11.53,4,4,0,0,0,1.47.24A2.8,2.8,0,0,0,27,15.09a2,2,0,0,0,.64-1.61,1.51,1.51,0,0,0-.35-1,2.81,2.81,0,0,0-.92-.67,8.51,8.51,0,0,0-1.3-.46c-.48-.13-1-.28-1.48-.44a11.31,11.31,0,0,1-1.49-.6,4.65,4.65,0,0,1-1.3-.94,4.48,4.48,0,0,1-.91-1.45,5.61,5.61,0,0,1-.35-2.14,5,5,0,0,1,.41-2A5.16,5.16,0,0,1,21.18,2a5.88,5.88,0,0,1,2-1.22A7.4,7.4,0,0,1,25.81.33a9.78,9.78,0,0,1,1.63.14,7.84,7.84,0,0,1,1.5.38,7.73,7.73,0,0,1,1.33.62,5.43,5.43,0,0,1,1.11.8Z"></path>
      <path class="cls-1" d="M41.82.53A12.85,12.85,0,0,1,45,.88a6.36,6.36,0,0,1,2.16,1,3.72,3.72,0,0,1,1.22,1.55,5.15,5.15,0,0,1,.38,2,4.21,4.21,0,0,1-.17,1.18,3.46,3.46,0,0,1-.55,1.06,4.42,4.42,0,0,1-1,.91,6.49,6.49,0,0,1-1.42.71,5.07,5.07,0,0,1,2.67,1.41,3.71,3.71,0,0,1,.86,2.53,5.22,5.22,0,0,1-.45,2.16,5,5,0,0,1-1.32,1.75,6.35,6.35,0,0,1-2.14,1.16,9.35,9.35,0,0,1-2.92.42H35.12V.53ZM39.34,3.7V8.2h2.2a8.08,8.08,0,0,0,1.27-.1,2.8,2.8,0,0,0,.95-.35,1.68,1.68,0,0,0,.6-.69A2.54,2.54,0,0,0,44.57,6a3.33,3.33,0,0,0-.16-1.08,1.64,1.64,0,0,0-.5-.7,2.18,2.18,0,0,0-.86-.37,5.62,5.62,0,0,0-1.23-.11Zm3,11.86a3.79,3.79,0,0,0,1.37-.21,2.36,2.36,0,0,0,.83-.55,1.8,1.8,0,0,0,.41-.77,3.12,3.12,0,0,0,.11-.86,2.84,2.84,0,0,0-.13-.9,1.48,1.48,0,0,0-.45-.67,2.08,2.08,0,0,0-.84-.43A4.92,4.92,0,0,0,42.29,11H39.34v4.54Z"></path>
      <path class="cls-1" d="M65.13,14a.8.8,0,0,1,.3.06.85.85,0,0,1,.29.19l1.67,1.77a7,7,0,0,1-2.75,2.17,9.79,9.79,0,0,1-3.92.73A9.31,9.31,0,0,1,57,18.24a8,8,0,0,1-2.79-1.95,8.47,8.47,0,0,1-1.75-2.95,10.86,10.86,0,0,1-.62-3.71,10.11,10.11,0,0,1,.67-3.74A8.57,8.57,0,0,1,54.37,3,8.4,8.4,0,0,1,57.24,1,9.62,9.62,0,0,1,60.93.33a9.89,9.89,0,0,1,1.93.18,10.55,10.55,0,0,1,1.7.5A8.7,8.7,0,0,1,66,1.78a7.59,7.59,0,0,1,1.17,1L65.76,4.67a2,2,0,0,1-.33.32.8.8,0,0,1-.52.14.91.91,0,0,1-.43-.1,3.14,3.14,0,0,1-.42-.24l-.5-.31a2.93,2.93,0,0,0-.64-.31,5,5,0,0,0-.86-.25,5.59,5.59,0,0,0-1.15-.1A4.64,4.64,0,0,0,59,4.21a4.14,4.14,0,0,0-1.5,1.13,5.25,5.25,0,0,0-1,1.83,8.08,8.08,0,0,0-.34,2.46,7.58,7.58,0,0,0,.38,2.49,5.25,5.25,0,0,0,1,1.83,4.13,4.13,0,0,0,1.53,1.13,4.54,4.54,0,0,0,1.87.39c.39,0,.74,0,1-.05a4.66,4.66,0,0,0,.89-.19,4.22,4.22,0,0,0,.78-.35,4.92,4.92,0,0,0,.73-.56,1.85,1.85,0,0,1,.33-.21A.9.9,0,0,1,65.13,14Z"></path>
      <path class="cls-1" d="M11.45,29.67V42.78H9.86a1.48,1.48,0,0,1-.59-.11,1.76,1.76,0,0,1-.47-.39L2.62,34.46c0,.23,0,.46,0,.68s0,.42,0,.61v7H0V29.67H1.6a1.78,1.78,0,0,1,.34,0,.94.94,0,0,1,.24.06.9.9,0,0,1,.2.14,1.44,1.44,0,0,1,.23.25L8.85,38c0-.25,0-.5-.07-.73s0-.46,0-.67V29.67Z"></path>
      <path class="cls-1" d="M32.62,36.22a7.22,7.22,0,0,1-.49,2.65A6.35,6.35,0,0,1,30.74,41a6.21,6.21,0,0,1-2.14,1.42,7.74,7.74,0,0,1-5.58,0A6.16,6.16,0,0,1,20.87,41a6.35,6.35,0,0,1-1.39-2.12,7.41,7.41,0,0,1,0-5.3,6.35,6.35,0,0,1,1.39-2.12A6.28,6.28,0,0,1,23,30a7.74,7.74,0,0,1,5.58,0,6.51,6.51,0,0,1,2.14,1.42,6.35,6.35,0,0,1,1.39,2.12A7.2,7.2,0,0,1,32.62,36.22Zm-3.12,0a5.6,5.6,0,0,0-.25-1.75,3.81,3.81,0,0,0-.72-1.32,3.24,3.24,0,0,0-1.16-.83,4.51,4.51,0,0,0-3.13,0,3.24,3.24,0,0,0-1.16.83,3.65,3.65,0,0,0-.72,1.32,5.6,5.6,0,0,0-.26,1.75A5.66,5.66,0,0,0,22.36,38a3.65,3.65,0,0,0,.72,1.32,3.1,3.1,0,0,0,1.16.82,4.37,4.37,0,0,0,3.13,0,3.1,3.1,0,0,0,1.16-.82A3.81,3.81,0,0,0,29.25,38,5.67,5.67,0,0,0,29.5,36.22Z"></path>
      <path class="cls-1" d="M50.9,42.78H48.14a1.17,1.17,0,0,1-1.1-.57L44.86,38.4a1.08,1.08,0,0,0-.34-.36,1.09,1.09,0,0,0-.54-.11h-.77v4.85h-3V29.67h4.26a9,9,0,0,1,2.43.29,4.67,4.67,0,0,1,1.64.82A3,3,0,0,1,49.42,32a4.11,4.11,0,0,1,.29,1.55,4.3,4.3,0,0,1-.17,1.2A3.93,3.93,0,0,1,49,35.81a3.7,3.7,0,0,1-.82.86,4.55,4.55,0,0,1-1.13.62,2.91,2.91,0,0,1,.56.38,2.74,2.74,0,0,1,.46.55Zm-6.47-7a3.26,3.26,0,0,0,1.06-.15,2,2,0,0,0,.72-.44,1.69,1.69,0,0,0,.4-.65,2.64,2.64,0,0,0,.13-.81,1.7,1.7,0,0,0-.57-1.35A2.62,2.62,0,0,0,44.43,32H43.21v3.88Z"></path>
      <path class="cls-1" d="M66.92,32.08H63.23v10.7h-3V32.08H56.5V29.67H66.92Z"></path>
      <path class="cls-1" d="M85.67,29.67V42.78H82.61V37.24H77.28v5.54H74.22V29.67h3.06v5.48h5.33V29.67Z"></path>
      <path class="cls-1" d="M115,42.78h-2.36a1.05,1.05,0,0,1-.64-.18,1.27,1.27,0,0,1-.37-.48l-.77-2.28h-5l-.77,2.28a1.19,1.19,0,0,1-.36.46,1,1,0,0,1-.63.2h-2.38l5.08-13.11H110Zm-4.84-5L109,34.18c-.09-.23-.19-.5-.29-.81s-.2-.64-.3-1c-.09.36-.19.7-.29,1s-.2.58-.29.81l-1.21,3.57Z"></path>
      <path class="cls-1" d="M136.57,29.67V42.78h-2.68V35.24c0-.17,0-.36,0-.57a4.44,4.44,0,0,1,.05-.62l-3.49,6.74a1.19,1.19,0,0,1-.43.48,1.23,1.23,0,0,1-.63.16H129a1.18,1.18,0,0,1-.63-.16,1.21,1.21,0,0,1-.44-.48L124.45,34c0,.22,0,.43,0,.64s0,.4,0,.57v7.54h-2.68V29.67h2.67a.76.76,0,0,1,.27.05.85.85,0,0,1,.21.14,1,1,0,0,1,.18.27l3.38,6.65c.12.23.23.46.34.71s.22.5.32.75c.11-.26.21-.52.32-.77s.23-.49.36-.72l3.36-6.62a1,1,0,0,1,.19-.27.6.6,0,0,1,.21-.14.76.76,0,0,1,.27-.05h2.66Z"></path>
      <path class="cls-1" d="M147.93,32v3.06h4.12v2.25h-4.12v3.12h5.38v2.34h-8.44V29.67h8.44V32Z"></path>
      <path class="cls-1" d="M171.67,42.78h-2.75a1.17,1.17,0,0,1-1.1-.57l-2.18-3.81a1.08,1.08,0,0,0-.34-.36,1.09,1.09,0,0,0-.54-.11H164v4.85h-3V29.67h4.26a9,9,0,0,1,2.43.29,4.67,4.67,0,0,1,1.64.82A3,3,0,0,1,170.2,32a4.11,4.11,0,0,1,.29,1.55,4,4,0,0,1-.18,1.2,3.63,3.63,0,0,1-.5,1.05,3.92,3.92,0,0,1-.82.86,4.55,4.55,0,0,1-1.13.62,2.91,2.91,0,0,1,.56.38,2.74,2.74,0,0,1,.46.55Zm-6.46-7a3.26,3.26,0,0,0,1.06-.15,1.87,1.87,0,0,0,.71-.44,1.6,1.6,0,0,0,.41-.65,2.64,2.64,0,0,0,.13-.81,1.7,1.7,0,0,0-.57-1.35,2.62,2.62,0,0,0-1.74-.48H164v3.88Z"></path>
      <path class="cls-1" d="M181.6,42.78h-3.06V29.67h3.06Z"></path>
      <path class="cls-1" d="M198.74,39.39a.52.52,0,0,1,.21,0,.64.64,0,0,1,.21.14l1.21,1.27a5,5,0,0,1-2,1.56,6.92,6.92,0,0,1-2.82.53,6.71,6.71,0,0,1-2.68-.51,5.79,5.79,0,0,1-2-1.41,6.16,6.16,0,0,1-1.26-2.12,8,8,0,0,1-.44-2.67,7.37,7.37,0,0,1,.48-2.7A6.09,6.09,0,0,1,191,31.41,5.86,5.86,0,0,1,193.06,30a6.91,6.91,0,0,1,2.65-.5,7.63,7.63,0,0,1,1.39.13,7.25,7.25,0,0,1,1.22.36,5.83,5.83,0,0,1,1.05.56,5.29,5.29,0,0,1,.84.7l-1,1.38a1.75,1.75,0,0,1-.24.23.59.59,0,0,1-.38.1.63.63,0,0,1-.3-.07l-.31-.18-.35-.22a3.28,3.28,0,0,0-.46-.23,4.23,4.23,0,0,0-.62-.17,4.19,4.19,0,0,0-.84-.07,3.47,3.47,0,0,0-1.38.27,3.17,3.17,0,0,0-1.08.82,3.9,3.9,0,0,0-.7,1.31,6,6,0,0,0-.25,1.78,5.22,5.22,0,0,0,.28,1.79,3.86,3.86,0,0,0,.75,1.32,3,3,0,0,0,1.1.81,3.23,3.23,0,0,0,1.35.28,5.76,5.76,0,0,0,.75,0,2.89,2.89,0,0,0,1.2-.38,4.34,4.34,0,0,0,.53-.4,1,1,0,0,1,.24-.15A.58.58,0,0,1,198.74,39.39Z"></path>
      <path class="cls-1" d="M219.22,42.78h-2.36a1.08,1.08,0,0,1-.64-.18,1.27,1.27,0,0,1-.37-.48l-.77-2.28h-5l-.77,2.28a1.1,1.1,0,0,1-.36.46,1,1,0,0,1-.63.2H206L211,29.67h3.11Zm-4.83-5-1.22-3.59c-.09-.23-.18-.5-.29-.81s-.2-.64-.3-1c-.09.36-.19.7-.29,1s-.2.58-.29.81l-1.2,3.57Z"></path>
    </g>
  </g>
</svg>
